<?xml version="1.0" standalone="no"?>
<!DOCTYPE svg PUBLIC "-//W3C//DTD SVG 20010904//EN"
 "http://www.w3.org/TR/2001/REC-SVG-20010904/DTD/svg10.dtd">
<svg version="1.0" xmlns="http://www.w3.org/2000/svg"
 width="1000.000000pt" height="1000.000000pt" viewBox="0 0 1000.000000 1000.000000"
 preserveAspectRatio="xMidYMid meet">

<g transform="translate(0.000000,1000.000000) scale(0.100000,-0.100000)"
fill="#000000" stroke="none">
<path d="M4845 9900 c-4 -6 -53 -10 -115 -10 -60 0 -142 -4 -182 -9 -40 -6
-118 -15 -173 -21 -859 -100 -1751 -479 -2445 -1039 -261 -210 -541 -490 -751
-751 -382 -474 -692 -1060 -867 -1640 -82 -270 -143 -556 -172 -805 -6 -55
-15 -133 -21 -173 -5 -40 -9 -122 -9 -182 0 -62 -4 -111 -10 -115 -13 -8 -13
-302 0 -310 6 -4 10 -53 10 -115 0 -60 4 -142 9 -182 6 -40 15 -118 21 -173
100 -859 479 -1751 1039 -2445 210 -261 490 -541 751 -751 474 -382 1056 -690
1640 -867 266 -81 554 -142 805 -172 55 -6 133 -15 173 -21 40 -5 122 -9 182
-9 62 0 111 -4 115 -10 8 -13 302 -13 310 0 4 6 53 10 115 10 60 0 142 4 182
9 40 6 118 15 173 21 859 100 1751 479 2445 1039 261 210 541 490 751 751 382
474 692 1060 867 1640 82 270 143 556 172 805 6 55 15 133 21 173 5 40 9 122
9 182 0 62 4 111 10 115 6 4 10 67 10 155 0 88 -4 151 -10 155 -6 4 -10 53
-10 115 0 60 -4 142 -9 182 -6 40 -15 118 -21 173 -100 859 -479 1751 -1039
2445 -210 261 -490 541 -751 751 -474 382 -1056 690 -1640 867 -266 81 -554
142 -805 172 -55 6 -133 15 -173 21 -40 5 -122 9 -182 9 -62 0 -111 4 -115 10
-4 6 -67 10 -155 10 -88 0 -151 -4 -155 -10z m590 -610 c446 -50 850 -154
1240 -317 131 -55 365 -171 454 -225 34 -21 65 -38 67 -38 2 0 64 -39 137 -86
1029 -670 1708 -1699 1917 -2904 44 -257 54 -384 54 -720 0 -391 -14 -529 -90
-905 -199 -980 -798 -1920 -1619 -2535 -112 -84 -387 -270 -399 -270 -2 0 -33
-17 -67 -38 -89 -54 -323 -170 -454 -225 -391 -164 -795 -267 -1250 -318 -145
-17 -705 -17 -850 0 -455 51 -859 154 -1250 318 -131 55 -365 171 -454 225
-34 21 -65 38 -67 38 -2 0 -64 39 -137 86 -1029 670 -1708 1699 -1917 2904
-44 257 -54 384 -54 720 0 391 14 529 90 905 199 980 798 1920 1619 2535 112
84 387 270 399 270 2 0 33 17 67 38 89 54 323 170 454 225 455 191 976 310
1445 331 128 6 570 -4 665 -14z"/>
<path d="M4980 8992 c-43 -20 -1198 -797 -1217 -818 l-23 -25 0 -490 c0 -544
-1 -537 64 -559 41 -13 98 6 115 38 7 14 11 147 11 400 0 208 3 381 6 385 3 3
226 -141 495 -320 l489 -326 0 -469 c0 -284 -4 -468 -9 -468 -6 0 -117 71
-248 158 -281 187 -272 182 -318 182 -68 0 -108 -77 -74 -141 6 -11 169 -126
363 -255 260 -173 360 -234 382 -234 22 0 123 62 383 234 195 129 360 245 367
257 22 40 17 78 -15 110 -56 56 -73 50 -362 -141 -142 -93 -263 -170 -269
-170 -7 0 -10 148 -8 468 l3 467 490 328 490 327 5 -387 c3 -214 9 -396 13
-405 13 -25 74 -51 104 -43 13 3 36 17 49 30 l24 24 0 504 0 503 -27 26 c-16
14 -293 203 -618 419 -580 387 -622 412 -665 391z"/>
<path d="M4354 7197 c-27 -19 -95 -67 -151 -108 -935 -681 -1116 -815 -1124
-836 -26 -68 18 -133 88 -133 35 0 62 17 234 143 107 78 399 292 650 474 251
183 459 340 463 348 9 25 7 74 -4 96 -12 22 -60 49 -88 49 -11 0 -42 -15 -68
-33z"/>
<path d="M5570 7219 c-57 -23 -78 -94 -41 -141 11 -13 77 -67 148 -118 388
-284 1093 -797 1122 -817 50 -34 102 -31 135 8 35 42 35 89 -1 128 -16 16
-188 145 -383 287 -195 142 -477 347 -627 456 -152 111 -284 200 -300 203 -15
2 -39 0 -53 -6z"/>
<path d="M1624 6036 c-439 -293 -614 -415 -626 -437 -17 -28 -18 -78 -18 -636
0 -601 0 -605 21 -635 31 -43 1227 -838 1261 -838 17 0 85 39 190 108 90 60
249 165 355 235 106 70 197 136 203 146 13 25 13 77 0 102 -16 28 -68 52 -99
44 -14 -4 -138 -81 -275 -172 -137 -91 -255 -167 -263 -170 -11 -4 -13 75 -13
464 l0 470 488 325 c268 179 490 324 495 321 4 -2 7 -177 7 -389 l0 -385 25
-24 c39 -40 98 -37 138 6 l27 29 0 493 c0 435 -2 495 -16 515 -9 13 -287 204
-618 425 -458 306 -610 402 -637 405 -33 3 -85 -29 -645 -402z m57 -997 c436
-290 477 -320 483 -349 9 -47 7 -910 -2 -910 -4 0 -226 146 -492 323 l-485
324 -3 472 c-2 378 0 471 10 465 7 -4 227 -151 489 -325z"/>
<path d="M7129 6033 c-443 -296 -618 -417 -627 -437 -9 -20 -12 -147 -12 -505
l0 -478 23 -33 c27 -41 68 -54 113 -35 58 24 59 25 64 443 l5 382 488 -325
487 -325 0 -470 c0 -259 -2 -470 -4 -470 -3 0 -118 75 -257 166 -139 91 -265
171 -280 176 -36 12 -97 -15 -110 -49 -14 -37 -10 -76 9 -100 9 -11 175 -125
367 -253 292 -193 355 -231 380 -228 43 5 1248 810 1264 844 8 18 11 198 11
637 l0 612 -23 27 c-12 15 -290 205 -617 424 -430 286 -605 398 -631 401 -33
5 -76 -22 -650 -404z m1721 -1135 l-1 -473 -480 -320 c-265 -176 -485 -321
-490 -323 -5 -2 -9 193 -9 466 l0 469 488 326 c268 179 488 326 490 327 1 0 2
-213 2 -472z"/>
<path d="M2789 4641 c-35 -35 -40 -96 -11 -129 9 -11 125 -98 257 -193 132
-95 258 -187 281 -204 22 -16 85 -62 140 -102 54 -39 196 -142 314 -229 304
-222 307 -224 347 -224 48 0 93 48 93 97 0 41 -28 71 -137 148 -37 27 -108 79
-158 115 -49 36 -216 158 -370 270 -154 112 -347 253 -428 312 -252 186 -272
194 -328 139z"/>
<path d="M7091 4628 c-60 -43 -998 -725 -1161 -846 -117 -87 -136 -140 -68
-197 58 -49 68 -44 365 173 149 108 441 320 648 471 253 185 381 284 392 304
31 62 -18 137 -90 137 -14 0 -52 -19 -86 -42z"/>
<path d="M4389 3484 c-327 -217 -606 -409 -621 -425 l-28 -29 0 -623 c0 -574
2 -624 18 -643 26 -33 1223 -828 1253 -832 21 -3 149 78 642 407 339 226 621
419 626 430 12 22 16 1246 5 1276 -4 9 -244 175 -533 368 -705 471 -699 467
-737 467 -25 0 -153 -81 -625 -396z m54 -1006 l477 -319 0 -470 c0 -258 -2
-469 -5 -469 -9 0 -970 643 -977 654 -9 13 -11 920 -2 929 8 8 -47 44 507
-325z m1657 -138 l0 -469 -487 -325 c-267 -179 -489 -324 -492 -322 -3 2 -5
215 -3 473 l3 468 482 322 c265 177 485 322 490 322 4 1 7 -210 7 -469z"/>
</g>
</svg>
