<?xml version="1.0" standalone="no"?>
<!DOCTYPE svg PUBLIC "-//W3C//DTD SVG 20010904//EN"
 "http://www.w3.org/TR/2001/REC-SVG-20010904/DTD/svg10.dtd">
<svg version="1.0" xmlns="http://www.w3.org/2000/svg"
 width="1000.000000pt" height="1000.000000pt" viewBox="0 0 1000.000000 1000.000000"
 preserveAspectRatio="xMidYMid meet">

<g transform="translate(0.000000,1000.000000) scale(0.100000,-0.100000)"
fill="#000000" stroke="none">
<path d="M4845 9900 c-4 -6 -53 -10 -115 -10 -60 0 -142 -4 -182 -9 -40 -6
-118 -15 -173 -21 -859 -100 -1751 -479 -2445 -1039 -261 -210 -541 -490 -751
-751 -382 -474 -692 -1060 -867 -1640 -82 -270 -143 -556 -172 -805 -6 -55
-15 -133 -21 -173 -5 -40 -9 -122 -9 -182 0 -62 -4 -111 -10 -115 -13 -8 -13
-302 0 -310 6 -4 10 -53 10 -115 0 -60 4 -142 9 -182 6 -40 15 -118 21 -173
100 -859 479 -1751 1039 -2445 210 -261 490 -541 751 -751 474 -382 1056 -690
1640 -867 266 -81 554 -142 805 -172 55 -6 133 -15 173 -21 40 -5 122 -9 182
-9 62 0 111 -4 115 -10 8 -13 302 -13 310 0 4 6 53 10 115 10 60 0 142 4 182
9 40 6 118 15 173 21 859 100 1751 479 2445 1039 261 210 541 490 751 751 382
474 692 1060 867 1640 82 270 143 556 172 805 6 55 15 133 21 173 5 40 9 122
9 182 0 62 4 111 10 115 6 4 10 67 10 155 0 88 -4 151 -10 155 -6 4 -10 53
-10 115 0 60 -4 142 -9 182 -6 40 -15 118 -21 173 -100 859 -479 1751 -1039
2445 -210 261 -490 541 -751 751 -474 382 -1056 690 -1640 867 -266 81 -554
142 -805 172 -55 6 -133 15 -173 21 -40 5 -122 9 -182 9 -62 0 -111 4 -115 10
-4 6 -67 10 -155 10 -88 0 -151 -4 -155 -10z m590 -610 c446 -50 850 -154
1240 -317 131 -55 365 -171 454 -225 34 -21 65 -38 67 -38 2 0 64 -39 137 -86
1029 -670 1708 -1699 1917 -2904 44 -257 54 -384 54 -720 0 -391 -14 -529 -90
-905 -199 -980 -798 -1920 -1619 -2535 -112 -84 -387 -270 -399 -270 -2 0 -33
-17 -67 -38 -89 -54 -323 -170 -454 -225 -391 -164 -795 -267 -1250 -318 -145
-17 -705 -17 -850 0 -455 51 -859 154 -1250 318 -131 55 -365 171 -454 225
-34 21 -65 38 -67 38 -2 0 -64 39 -137 86 -1029 670 -1708 1699 -1917 2904
-44 257 -54 384 -54 720 0 391 14 529 90 905 199 980 798 1920 1619 2535 112
84 387 270 399 270 2 0 33 17 67 38 89 54 323 170 454 225 455 191 976 310
1445 331 128 6 570 -4 665 -14z"/>
<path d="M4274 7681 c-12 -5 -79 -12 -150 -16 -131 -7 -188 -18 -291 -54 -32
-11 -74 -22 -95 -26 -20 -3 -60 -18 -90 -34 -29 -15 -67 -31 -85 -34 -17 -3
-54 -20 -81 -37 -27 -16 -56 -30 -64 -30 -8 0 -34 -14 -57 -30 -22 -17 -59
-37 -80 -46 -22 -9 -47 -27 -56 -40 -8 -13 -23 -24 -32 -24 -8 0 -32 -15 -53
-32 -21 -18 -64 -54 -96 -80 -33 -26 -91 -80 -130 -120 -85 -88 -244 -275
-244 -288 0 -6 -16 -30 -35 -56 -19 -25 -35 -52 -35 -59 0 -7 -16 -32 -35 -55
-19 -23 -35 -49 -35 -57 0 -8 -11 -36 -24 -62 -43 -81 -77 -172 -122 -326 -38
-127 -47 -177 -60 -320 -9 -93 -19 -176 -23 -184 -11 -22 -28 -24 -43 -5 -48
60 -124 120 -167 131 -25 6 -67 19 -94 28 -45 17 -49 17 -95 -3 -26 -11 -65
-23 -87 -27 -42 -7 -112 -63 -151 -120 -25 -37 -53 -119 -60 -182 -8 -67 -22
-98 -49 -113 -33 -18 -88 -124 -88 -170 0 -21 13 -63 29 -96 25 -49 41 -66 94
-101 l65 -43 123 0 c145 0 157 -9 99 -68 -98 -101 -177 -202 -177 -227 0 -8
-11 -27 -25 -43 -14 -17 -32 -50 -40 -74 -9 -23 -26 -65 -39 -93 -13 -27 -37
-102 -52 -165 -25 -100 -29 -133 -29 -260 0 -122 4 -159 24 -230 13 -47 26
-100 29 -119 2 -18 20 -63 38 -99 19 -36 34 -74 34 -83 0 -9 14 -33 30 -54 17
-21 30 -44 30 -51 0 -7 15 -33 34 -57 19 -25 42 -59 51 -76 8 -17 20 -31 26
-31 5 0 19 -16 31 -36 15 -25 26 -34 42 -32 30 4 32 36 4 66 -22 24 -86 115
-113 161 -5 9 -25 40 -43 67 -17 28 -32 57 -32 65 0 9 -11 30 -25 49 -14 18
-27 50 -31 69 -8 51 -34 139 -53 186 -21 51 -24 357 -3 392 7 13 17 42 22 65
22 105 39 159 79 240 23 47 48 92 56 98 8 7 15 17 15 23 0 16 49 84 102 141
26 28 50 59 54 69 3 9 18 24 34 32 16 8 32 24 35 35 4 12 18 25 32 31 13 5
135 9 269 9 162 0 253 4 267 11 30 15 78 67 99 106 13 25 18 55 18 121 0 94
-3 103 -68 176 -27 30 -33 45 -29 69 7 48 -13 108 -50 154 -27 34 -42 43 -78
48 -65 10 -79 31 -72 107 4 35 11 107 17 162 5 54 21 132 35 174 14 41 28 93
32 116 3 23 19 66 34 96 15 30 31 69 35 85 10 41 93 203 121 238 13 16 23 34
23 42 0 17 61 102 143 196 37 43 67 81 68 86 0 4 20 26 45 48 24 22 76 69 114
105 39 36 90 81 115 100 25 19 60 47 78 61 17 15 49 34 70 43 22 9 52 27 68
40 16 14 45 29 64 35 18 5 49 20 67 34 18 14 53 30 78 37 25 7 61 21 80 31 19
11 76 30 125 43 50 14 108 31 130 40 22 8 58 15 80 16 22 0 81 7 130 15 102
17 429 20 510 4 28 -5 88 -13 135 -18 154 -16 178 -49 80 -107 -30 -18 -63
-33 -72 -34 -9 0 -30 -11 -46 -25 -17 -14 -45 -32 -64 -39 -18 -8 -44 -26 -57
-40 -14 -14 -30 -26 -38 -26 -22 0 -191 -156 -259 -238 -34 -42 -75 -91 -91
-109 -15 -17 -29 -37 -31 -45 -3 -7 -13 -22 -22 -33 -16 -18 -77 -134 -139
-268 -22 -46 -76 -257 -100 -387 -17 -94 -18 -302 -2 -381 18 -85 6 -123 -44
-139 -18 -6 -39 -17 -45 -25 -6 -8 -36 -28 -66 -44 -65 -38 -223 -193 -284
-281 -67 -96 -114 -193 -144 -297 -23 -81 -26 -110 -26 -243 0 -113 4 -160 15
-188 9 -20 20 -55 25 -78 11 -47 72 -181 104 -228 97 -141 233 -287 319 -342
21 -14 47 -34 57 -44 11 -11 28 -20 39 -20 10 0 35 -13 56 -30 21 -16 56 -35
78 -41 22 -6 50 -17 61 -24 31 -19 113 -42 176 -50 30 -3 60 -11 66 -16 17
-14 3611 -13 3684 1 30 6 80 15 110 20 61 11 184 68 245 114 22 17 63 52 91
79 47 45 54 48 95 45 42 -3 44 -4 47 -38 2 -19 -1 -57 -6 -85 -6 -27 -18 -106
-27 -175 -9 -73 -28 -160 -45 -210 -16 -47 -36 -111 -46 -142 -9 -31 -25 -65
-35 -74 -11 -10 -24 -34 -29 -54 -6 -21 -24 -54 -40 -75 -17 -21 -30 -44 -30
-51 0 -7 -8 -19 -17 -26 -10 -7 -37 -39 -61 -70 -59 -77 -207 -208 -235 -208
-9 0 -31 -13 -50 -29 -18 -16 -46 -33 -63 -36 -36 -9 -116 -36 -129 -45 -41
-29 -141 -30 -2087 -30 -1797 0 -1986 -1 -2006 -16 -18 -13 -21 -19 -11 -30
10 -12 303 -14 2014 -14 l2002 0 74 25 c41 14 94 31 119 37 25 6 63 23 84 39
22 16 48 29 57 29 10 0 39 18 64 40 25 22 50 40 54 40 16 0 151 141 203 211
65 89 114 169 123 201 4 12 16 39 27 58 39 68 118 313 118 368 0 18 10 79 21
135 19 89 21 123 16 276 -5 159 -4 177 14 210 10 20 19 43 19 51 0 8 14 56 32
105 31 90 31 91 35 330 5 261 -3 350 -37 435 -12 30 -26 71 -32 89 -5 19 -32
74 -58 121 -70 122 -237 286 -313 305 -14 4 -33 15 -42 25 -19 21 -13 58 24
160 59 161 -15 495 -144 648 -14 17 -25 33 -25 38 0 10 -161 164 -173 164 -5
0 -25 13 -43 30 -19 16 -47 33 -62 36 -15 4 -38 14 -52 24 -74 49 -395 100
-448 71 -11 -6 -59 -15 -108 -21 -70 -7 -98 -16 -137 -40 -26 -16 -54 -30 -61
-30 -6 0 -31 -14 -54 -31 -23 -17 -50 -29 -59 -27 -10 2 -29 26 -43 54 -14 28
-35 63 -47 79 -13 15 -23 32 -23 37 0 5 -39 55 -86 111 -88 104 -244 249 -281
261 -11 4 -32 20 -47 36 -14 17 -32 30 -39 30 -6 0 -34 16 -61 35 -27 19 -55
35 -62 35 -8 0 -42 16 -77 35 -35 19 -73 35 -84 35 -11 0 -51 14 -88 31 -45
20 -95 34 -149 40 -45 5 -108 14 -141 20 -102 20 -331 23 -375 5 -21 -8 -86
-20 -145 -26 -108 -11 -178 -5 -240 21 -72 30 -130 41 -290 56 -226 20 -345
24 -371 14z"/>
<path d="M2469 4515 c-4 -3 -41 -15 -84 -25 -68 -17 -138 -55 -177 -97 -44
-48 -73 -92 -98 -151 -25 -59 -30 -84 -30 -150 l0 -78 -51 -45 c-28 -24 -65
-64 -82 -89 -27 -39 -32 -56 -35 -121 -5 -90 11 -128 81 -199 103 -105 120
-110 373 -110 111 0 214 -4 228 -10 l26 -10 0 -132 c0 -73 -4 -139 -9 -146 -6
-11 -72 -13 -327 -12 -276 0 -322 -2 -341 -15 -22 -15 -23 -23 -23 -139 0 -81
-4 -126 -12 -134 -7 -7 -42 -12 -88 -12 -115 0 -114 2 -111 -171 1 -81 7 -149
13 -156 8 -10 67 -13 234 -13 274 0 254 -14 254 176 0 162 -1 164 -113 164
-67 0 -78 3 -91 22 -22 31 -22 165 0 197 15 21 21 22 98 16 44 -3 172 -8 284
-11 235 -6 217 4 220 -125 2 -95 -6 -104 -82 -95 -38 4 -65 1 -90 -9 l-36 -15
0 -138 c0 -193 -16 -182 259 -182 212 0 212 0 236 25 24 23 25 29 25 154 0
125 -1 131 -23 146 -13 8 -55 16 -101 19 -43 2 -83 9 -88 14 -7 7 -8 41 -2
104 l9 93 290 0 290 0 0 -95 0 -95 -77 -10 c-50 -6 -86 -17 -103 -30 -23 -18
-25 -26 -24 -95 1 -147 4 -169 25 -197 l21 -28 216 -3 c282 -3 261 -21 257
223 -1 102 -13 115 -109 115 -36 0 -73 5 -81 10 -11 7 -16 39 -21 134 -4 79
-11 131 -19 141 -11 13 -57 15 -336 15 -280 0 -325 2 -338 16 -13 12 -16 40
-16 144 0 118 2 130 19 140 12 6 117 10 271 10 172 0 258 4 273 12 109 58 164
168 154 308 -6 89 -23 127 -84 189 l-44 45 7 58 c5 46 3 66 -14 101 -11 24
-27 49 -36 56 -9 8 -16 20 -16 27 0 8 -15 21 -32 29 -18 9 -46 23 -63 32 -46
25 -116 22 -169 -6 -37 -21 -47 -23 -60 -12 -9 8 -16 19 -16 25 0 15 -102 113
-144 140 -53 34 -250 79 -267 61z"/>
<path d="M2055 3020 c-10 -16 4 -48 24 -55 18 -5 46 -28 102 -81 14 -13 31
-24 38 -24 6 0 24 -9 39 -19 40 -29 90 -37 98 -16 9 21 -29 61 -65 68 -15 3
-33 17 -40 30 -7 14 -30 32 -50 41 -20 9 -51 27 -70 41 -36 26 -65 32 -76 15z"/>
<path d="M2983 2680 c-44 -18 -17 -64 34 -58 21 2 29 9 31 27 6 36 -21 49 -65
31z"/>
</g>
</svg>
