<?xml version="1.0" standalone="no"?>
<!DOCTYPE svg PUBLIC "-//W3C//DTD SVG 20010904//EN"
 "http://www.w3.org/TR/2001/REC-SVG-20010904/DTD/svg10.dtd">
<svg version="1.0" xmlns="http://www.w3.org/2000/svg"
 width="1000.000000pt" height="1000.000000pt" viewBox="0 0 1000.000000 1000.000000"
 preserveAspectRatio="xMidYMid meet">

<g transform="translate(0.000000,1000.000000) scale(0.100000,-0.100000)"
fill="#000000" stroke="none">
<path d="M4845 9900 c-4 -6 -53 -10 -115 -10 -60 0 -142 -4 -182 -9 -40 -6
-118 -15 -173 -21 -859 -100 -1751 -479 -2445 -1039 -261 -210 -541 -490 -751
-751 -382 -474 -692 -1060 -867 -1640 -82 -270 -143 -556 -172 -805 -6 -55
-15 -133 -21 -173 -5 -40 -9 -122 -9 -182 0 -62 -4 -111 -10 -115 -13 -8 -13
-302 0 -310 6 -4 10 -53 10 -115 0 -60 4 -142 9 -182 6 -40 15 -118 21 -173
100 -859 479 -1751 1039 -2445 210 -261 490 -541 751 -751 474 -382 1056 -690
1640 -867 266 -81 554 -142 805 -172 55 -6 133 -15 173 -21 40 -5 122 -9 182
-9 62 0 111 -4 115 -10 8 -13 302 -13 310 0 4 6 53 10 115 10 60 0 142 4 182
9 40 6 118 15 173 21 859 100 1751 479 2445 1039 261 210 541 490 751 751 382
474 692 1060 867 1640 82 270 143 556 172 805 6 55 15 133 21 173 5 40 9 122
9 182 0 62 4 111 10 115 6 4 10 67 10 155 0 88 -4 151 -10 155 -6 4 -10 53
-10 115 0 60 -4 142 -9 182 -6 40 -15 118 -21 173 -100 859 -479 1751 -1039
2445 -210 261 -490 541 -751 751 -474 382 -1056 690 -1640 867 -266 81 -554
142 -805 172 -55 6 -133 15 -173 21 -40 5 -122 9 -182 9 -62 0 -111 4 -115 10
-4 6 -67 10 -155 10 -88 0 -151 -4 -155 -10z m590 -610 c446 -50 850 -154
1240 -317 131 -55 365 -171 454 -225 34 -21 65 -38 67 -38 2 0 64 -39 137 -86
1029 -670 1708 -1699 1917 -2904 44 -257 54 -384 54 -720 0 -391 -14 -529 -90
-905 -199 -980 -798 -1920 -1619 -2535 -112 -84 -387 -270 -399 -270 -2 0 -33
-17 -67 -38 -89 -54 -323 -170 -454 -225 -391 -164 -795 -267 -1250 -318 -145
-17 -705 -17 -850 0 -455 51 -859 154 -1250 318 -131 55 -365 171 -454 225
-34 21 -65 38 -67 38 -2 0 -64 39 -137 86 -1029 670 -1708 1699 -1917 2904
-44 257 -54 384 -54 720 0 391 14 529 90 905 199 980 798 1920 1619 2535 112
84 387 270 399 270 2 0 33 17 67 38 89 54 323 170 454 225 455 191 976 310
1445 331 128 6 570 -4 665 -14z"/>
<path d="M3953 7413 c-19 -3 -45 -17 -62 -34 l-29 -29 -1 -606 c-1 -690 -7
-644 86 -677 44 -15 93 -16 553 -12 278 2 534 5 570 7 64 2 87 -6 140 -48 33
-26 189 -182 231 -232 l46 -52 7 92 c3 50 6 116 6 147 0 86 0 86 143 87 152 1
179 11 205 74 17 42 18 83 17 610 -1 311 -5 576 -9 590 -17 58 -28 69 -80 79
-48 10 -1744 13 -1823 4z m1807 -109 c7 -7 9 -209 8 -575 l-3 -564 -899 0
-898 0 -2 573 c0 314 2 573 7 575 25 8 1779 -1 1787 -9z"/>
<path d="M2389 6887 c-97 -14 -96 -12 -104 -199 -11 -276 -2 -965 13 -980 10
-10 129 -14 570 -16 545 -3 557 -3 578 -23 12 -11 25 -37 30 -57 4 -21 9 -44
12 -52 2 -8 9 -50 14 -92 6 -43 14 -78 18 -78 9 0 28 42 51 112 10 32 23 68
30 80 18 36 61 78 79 78 9 0 20 3 24 8 4 4 11 7 14 8 4 0 23 3 42 7 19 3 88 8
153 10 149 5 162 14 160 107 -1 33 -7 68 -13 79 -5 11 -10 29 -10 39 0 18 -9
21 -62 25 -135 11 -193 32 -214 78 -32 68 -34 102 -34 485 l0 389 -648 0
c-357 0 -673 -3 -703 -8z"/>
<path d="M6315 6327 c-16 -5 -49 -18 -72 -28 -24 -11 -46 -19 -49 -19 -4 0
-27 -16 -51 -36 -54 -45 -120 -142 -129 -192 -4 -20 -11 -45 -16 -56 -6 -10
-11 -44 -13 -75 -3 -73 -3 -71 -19 -71 -37 0 -47 -123 -16 -188 11 -22 20 -46
20 -53 0 -6 7 -17 16 -23 9 -7 19 -40 25 -86 6 -41 19 -94 29 -117 18 -39 134
-183 153 -192 5 -2 17 -11 26 -20 35 -35 122 -91 141 -91 11 0 20 -4 20 -10 0
-5 18 -10 39 -10 22 0 43 5 46 10 3 6 13 10 22 10 9 0 31 11 49 25 18 14 35
25 38 25 11 0 113 109 164 175 28 37 52 78 52 91 0 13 4 25 9 28 4 3 11 33 15
66 4 34 20 94 37 135 41 104 38 201 -7 228 -10 5 -14 29 -14 76 0 66 -24 161
-56 223 -23 45 -100 116 -151 139 -101 46 -235 62 -308 36z"/>
<path d="M3424 5229 c-2 -4 -28 -13 -56 -20 -29 -6 -71 -24 -93 -37 -47 -30
-115 -92 -115 -105 0 -5 -8 -21 -19 -35 -28 -40 -51 -118 -61 -201 -6 -59 -13
-78 -30 -91 -19 -15 -22 -26 -23 -87 0 -71 25 -161 49 -175 6 -4 15 -31 19
-60 4 -29 9 -60 11 -68 2 -8 7 -28 10 -45 8 -36 47 -93 106 -156 l43 -46 50 8
c28 4 66 11 85 16 47 13 212 8 239 -6 11 -7 21 -10 21 -8 0 3 19 1 42 -3 40
-8 44 -6 76 28 33 35 73 93 98 138 6 12 17 62 25 110 7 49 15 91 19 94 3 3 15
28 25 55 25 63 25 183 1 201 -9 6 -16 25 -16 42 0 41 -37 198 -57 242 -38 84
-134 170 -214 191 -52 14 -229 27 -235 18z"/>
<path d="M6853 4998 c-11 -13 -32 -53 -164 -306 -60 -116 -87 -150 -108 -137
-5 3 -17 31 -26 63 -9 31 -20 66 -24 77 -37 100 -41 119 -24 145 8 14 27 37
40 52 28 30 23 52 -10 42 -12 -4 -61 -6 -109 -6 -48 1 -89 -2 -92 -6 -3 -5 11
-28 30 -51 19 -24 34 -51 34 -60 -1 -34 -78 -246 -93 -255 -22 -14 -37 2 -77
84 -17 36 -36 72 -41 80 -5 8 -23 42 -39 75 -69 139 -107 200 -121 196 -8 -2
-36 -6 -64 -8 -27 -2 -59 -8 -70 -13 -11 -5 -33 -11 -50 -14 -76 -12 -137 -33
-221 -76 -99 -51 -250 -162 -259 -191 -4 -11 -10 -19 -14 -19 -8 0 -76 -94
-96 -134 -6 -11 -17 -30 -23 -41 -12 -21 -33 -71 -51 -120 -6 -16 -20 -68 -31
-115 -11 -47 -25 -101 -30 -120 -5 -19 -12 -72 -15 -117 l-6 -83 1340 0 c1066
0 1341 3 1342 13 1 6 1 15 0 20 -1 4 -6 53 -11 110 -6 56 -15 122 -21 147 -18
81 -31 125 -40 142 -5 10 -9 24 -9 32 0 26 -72 168 -111 221 -53 72 -170 178
-234 211 -11 6 -29 16 -40 22 -82 47 -260 109 -370 131 -28 5 -57 12 -66 16
-9 3 -21 0 -26 -7z"/>
<path d="M3363 3939 c-5 -5 -27 -11 -49 -14 -56 -7 -96 -15 -119 -25 -11 -4
-40 -14 -65 -21 -25 -7 -49 -16 -55 -21 -5 -4 -16 -8 -25 -8 -8 0 -37 -11 -65
-25 -27 -13 -54 -25 -60 -25 -9 0 -85 -36 -360 -172 -77 -38 -132 -72 -155
-96 -42 -46 -110 -147 -110 -164 0 -8 -8 -29 -18 -48 -11 -19 -27 -62 -37 -95
-10 -33 -22 -64 -27 -69 -4 -6 -8 -20 -8 -32 0 -13 -4 -25 -9 -29 -6 -3 -10
-13 -10 -23 1 -26 -18 -91 -29 -105 -5 -7 -13 -32 -16 -57 -4 -25 -11 -54 -15
-65 -15 -38 -33 -97 -29 -98 32 -19 103 -47 118 -47 10 0 22 -5 25 -10 4 -6
11 -8 16 -4 5 3 20 -1 33 -9 12 -8 49 -20 82 -25 32 -6 79 -16 104 -22 94 -23
268 -51 313 -50 15 0 58 -7 95 -15 125 -30 1094 -30 1202 -1 14 4 50 9 80 12
102 8 223 27 345 54 28 6 77 16 110 21 33 6 65 15 70 19 6 4 30 13 55 19 44
12 65 19 116 43 23 11 25 16 19 48 -4 19 -11 55 -15 80 -5 25 -14 68 -19 95
-6 28 -13 63 -16 79 -3 16 -10 36 -14 45 -5 9 -12 36 -16 61 -4 24 -11 51 -15
60 -4 8 -12 26 -18 40 -31 78 -78 166 -116 217 -48 66 -160 170 -209 194 -18
8 -41 20 -52 26 -11 6 -32 16 -47 22 -16 6 -38 15 -50 20 -13 6 -48 14 -78 20
-97 17 -129 28 -232 80 -55 28 -107 51 -114 51 -8 0 -14 5 -14 10 0 6 -9 10
-20 10 -11 0 -28 4 -38 9 -9 5 -48 17 -87 27 -79 20 -336 29 -352 13z"/>
<path d="M4673 3678 c62 -62 167 -197 167 -214 0 -3 8 -18 18 -32 25 -37 92
-196 92 -219 0 -11 4 -23 8 -29 14 -15 47 -140 43 -162 -1 -8 2 -19 8 -26 6
-7 14 -30 19 -52 l8 -39 1177 -2 c894 -2 1183 0 1204 9 28 12 99 62 118 82 6
6 28 24 50 41 22 16 86 69 142 117 55 49 106 88 112 88 5 0 14 7 18 15 5 8 23
25 40 38 33 24 314 256 374 310 20 18 64 55 97 82 34 28 62 53 62 57 0 4 -862
7 -1915 8 l-1914 0 72 -72z m2157 -73 c7 -4 6 -13 -2 -24 -14 -20 -169 -155
-226 -199 -20 -15 -44 -34 -53 -42 -9 -8 -45 -37 -79 -65 -34 -27 -79 -64 -99
-81 -90 -76 -64 -72 -483 -74 -230 0 -379 3 -382 9 -3 5 13 24 36 42 24 18 48
37 53 43 6 6 32 27 58 46 27 19 63 47 82 63 18 15 35 27 38 27 3 0 19 12 35
28 16 15 66 55 113 89 46 34 107 80 136 102 28 22 67 42 85 44 46 7 676 -1
688 -8z"/>
</g>
</svg>
