<?xml version="1.0" standalone="no"?>
<!DOCTYPE svg PUBLIC "-//W3C//DTD SVG 20010904//EN"
 "http://www.w3.org/TR/2001/REC-SVG-20010904/DTD/svg10.dtd">
<svg version="1.0" xmlns="http://www.w3.org/2000/svg"
 width="1000.000000pt" height="1000.000000pt" viewBox="0 0 1000.000000 1000.000000"
 preserveAspectRatio="xMidYMid meet">

<g transform="translate(0.000000,1000.000000) scale(0.100000,-0.100000)"
fill="#000000" stroke="none">
<path d="M4845 9900 c-4 -6 -53 -10 -115 -10 -60 0 -142 -4 -182 -9 -40 -6
-118 -15 -173 -21 -859 -100 -1751 -479 -2445 -1039 -261 -210 -541 -490 -751
-751 -382 -474 -692 -1060 -867 -1640 -82 -270 -143 -556 -172 -805 -6 -55
-15 -133 -21 -173 -5 -40 -9 -122 -9 -182 0 -62 -4 -111 -10 -115 -13 -8 -13
-302 0 -310 6 -4 10 -53 10 -115 0 -60 4 -142 9 -182 6 -40 15 -118 21 -173
100 -859 479 -1751 1039 -2445 210 -261 490 -541 751 -751 474 -382 1056 -690
1640 -867 266 -81 554 -142 805 -172 55 -6 133 -15 173 -21 40 -5 122 -9 182
-9 62 0 111 -4 115 -10 8 -13 302 -13 310 0 4 6 53 10 115 10 60 0 142 4 182
9 40 6 118 15 173 21 859 100 1751 479 2445 1039 261 210 541 490 751 751 382
474 692 1060 867 1640 82 270 143 556 172 805 6 55 15 133 21 173 5 40 9 122
9 182 0 62 4 111 10 115 6 4 10 67 10 155 0 88 -4 151 -10 155 -6 4 -10 53
-10 115 0 60 -4 142 -9 182 -6 40 -15 118 -21 173 -100 859 -479 1751 -1039
2445 -210 261 -490 541 -751 751 -474 382 -1056 690 -1640 867 -266 81 -554
142 -805 172 -55 6 -133 15 -173 21 -40 5 -122 9 -182 9 -62 0 -111 4 -115 10
-4 6 -67 10 -155 10 -88 0 -151 -4 -155 -10z m590 -610 c446 -50 850 -154
1240 -317 131 -55 365 -171 454 -225 34 -21 65 -38 67 -38 2 0 64 -39 137 -86
1029 -670 1708 -1699 1917 -2904 44 -257 54 -384 54 -720 0 -391 -14 -529 -90
-905 -199 -980 -798 -1920 -1619 -2535 -112 -84 -387 -270 -399 -270 -2 0 -33
-17 -67 -38 -89 -54 -323 -170 -454 -225 -391 -164 -795 -267 -1250 -318 -145
-17 -705 -17 -850 0 -455 51 -859 154 -1250 318 -131 55 -365 171 -454 225
-34 21 -65 38 -67 38 -2 0 -64 39 -137 86 -1029 670 -1708 1699 -1917 2904
-44 257 -54 384 -54 720 0 391 14 529 90 905 199 980 798 1920 1619 2535 112
84 387 270 399 270 2 0 33 17 67 38 89 54 323 170 454 225 455 191 976 310
1445 331 128 6 570 -4 665 -14z"/>
<path d="M4800 8175 c0 -23 -62 -34 -230 -40 -126 -5 -169 -11 -228 -31 -46
-15 -95 -24 -135 -24 -52 0 -69 -5 -97 -25 -23 -17 -47 -25 -75 -25 -29 0 -47
-6 -60 -20 -10 -11 -34 -23 -54 -26 -49 -9 -116 -49 -175 -105 -43 -41 -49
-52 -53 -95 -4 -48 -3 -50 56 -111 41 -42 68 -63 84 -63 13 0 34 -11 47 -25
16 -17 34 -25 58 -25 19 0 47 -10 64 -21 19 -14 47 -22 81 -24 33 -1 72 -12
106 -30 43 -21 63 -26 96 -22 41 6 122 -10 162 -31 42 -23 607 -33 1014 -20
181 7 211 10 255 29 35 16 71 23 129 24 62 2 90 7 124 25 24 13 66 25 95 28
28 3 63 13 78 23 14 11 41 19 60 19 24 0 41 7 56 25 14 16 32 25 51 25 24 0
41 13 86 65 56 63 57 67 52 112 -4 39 -12 53 -53 93 -58 54 -111 87 -175 106
-26 8 -52 21 -59 29 -7 9 -29 15 -54 15 -29 0 -53 8 -76 25 -28 20 -45 25 -97
25 -41 0 -81 7 -115 21 -36 14 -80 22 -133 24 -213 6 -335 25 -335 50 0 13
-40 15 -275 15 -235 0 -275 -2 -275 -15z"/>
<path d="M3700 7491 c-13 -26 -13 -376 0 -402 16 -29 108 -112 140 -125 15 -7
31 -17 34 -23 4 -6 20 -11 36 -11 16 0 42 -11 58 -25 23 -19 41 -25 79 -25 40
0 54 -5 73 -25 20 -22 31 -25 84 -23 41 1 91 -8 155 -26 62 -19 105 -26 130
-23 50 8 267 -17 320 -37 61 -23 456 -23 516 0 50 19 276 44 337 37 33 -4 66
2 124 22 58 20 97 27 145 27 58 -1 69 1 89 23 19 20 33 25 73 25 38 0 56 6 79
25 16 14 42 25 58 25 16 0 32 5 36 11 3 6 19 16 34 23 32 13 124 96 140 125
11 21 14 360 4 399 -8 29 -27 28 -61 -3 -66 -58 -92 -75 -131 -83 -22 -5 -53
-19 -68 -31 -18 -14 -41 -21 -73 -21 -31 -1 -59 -9 -86 -25 -32 -20 -53 -25
-107 -25 -50 0 -78 -6 -110 -22 -38 -20 -60 -23 -193 -26 -110 -2 -162 -8
-195 -20 -39 -15 -88 -17 -360 -17 -281 0 -318 2 -347 18 -26 14 -57 17 -163
17 -135 0 -211 12 -231 36 -8 10 -34 14 -84 14 -58 0 -81 5 -119 25 -29 15
-63 25 -90 25 -29 0 -52 8 -76 25 -19 14 -46 25 -61 25 -26 0 -80 35 -129 85
-30 30 -46 32 -60 6z"/>
<path d="M3694 6845 c-4 -9 -5 -105 -2 -215 l4 -199 29 -32 c17 -17 46 -39 65
-49 19 -10 43 -28 53 -40 12 -14 24 -19 37 -15 13 4 28 -2 45 -19 18 -18 37
-26 62 -26 19 0 57 -11 85 -25 33 -17 66 -25 101 -25 33 0 69 -9 97 -22 34
-17 73 -24 160 -29 128 -7 242 -24 270 -39 31 -17 701 -13 758 4 72 21 184 36
273 36 62 0 89 5 122 21 26 14 69 24 111 27 51 4 79 11 104 28 22 15 49 24 74
24 28 0 49 8 70 25 16 14 42 25 58 25 15 0 30 7 33 15 4 8 23 23 44 34 21 10
51 33 68 51 l30 31 3 205 c5 224 0 245 -41 206 -13 -12 -31 -22 -40 -22 -9 0
-30 -13 -47 -30 -20 -19 -41 -30 -59 -30 -18 0 -34 -8 -43 -22 -12 -18 -24
-22 -57 -21 -29 1 -58 -7 -98 -28 -47 -25 -64 -29 -99 -23 -34 5 -50 1 -86
-20 -40 -23 -55 -26 -142 -26 -60 0 -109 -5 -130 -14 -73 -30 -204 -38 -591
-34 -335 4 -387 7 -435 23 -32 10 -89 19 -135 20 -102 2 -152 12 -192 36 -25
16 -42 19 -75 14 -36 -6 -53 -2 -102 25 -42 22 -67 29 -86 25 -20 -4 -35 1
-58 20 -16 14 -41 25 -56 25 -15 0 -38 12 -56 30 -17 17 -39 30 -49 30 -10 0
-26 9 -36 20 -22 24 -34 25 -41 5z"/>
<path d="M3703 6223 c-17 -6 -18 -314 -2 -330 7 -7 41 -9 92 -6 74 5 158 -2
304 -25 47 -8 60 -16 127 -80 72 -70 75 -72 125 -72 29 0 64 6 79 14 37 18
1251 17 1295 -2 16 -7 49 -12 75 -12 45 0 51 4 120 71 67 65 77 71 130 79 31
5 73 14 92 20 20 6 88 10 160 8 69 -1 131 1 138 5 16 11 17 322 1 332 -6 4
-20 -2 -32 -13 -12 -11 -33 -23 -47 -27 -13 -4 -33 -18 -43 -31 -12 -16 -29
-24 -49 -24 -20 0 -39 -9 -54 -25 -17 -19 -33 -25 -63 -25 -24 0 -59 -10 -88
-26 -38 -20 -57 -25 -93 -21 -35 4 -57 0 -100 -20 -48 -23 -70 -26 -165 -28
-72 -1 -122 -7 -145 -17 -59 -25 -160 -31 -490 -30 -346 2 -423 6 -490 29 -27
9 -88 16 -151 18 -89 1 -114 5 -150 24 -31 17 -62 23 -110 24 -53 2 -74 7 -98
25 -21 15 -44 22 -76 22 -36 0 -51 5 -69 25 -15 16 -34 25 -54 25 -20 0 -37 8
-49 24 -10 13 -30 27 -43 31 -14 4 -34 15 -45 25 -11 10 -26 15 -32 13z"/>
<path d="M2834 5609 c-23 -20 -69 -67 -102 -105 -32 -38 -80 -88 -105 -112
-57 -52 -62 -82 -12 -72 6 1 341 2 745 2 l735 0 53 51 c53 52 63 73 38 83 -7
3 -28 25 -45 49 -17 24 -56 64 -85 90 l-54 46 -563 2 -564 2 -41 -36z"/>
<path d="M6142 5639 c-29 -11 -202 -188 -202 -207 0 -4 24 -31 53 -59 l52 -51
735 0 c404 0 740 -1 745 -2 50 -11 45 21 -12 72 -25 24 -73 75 -106 113 -33
39 -77 85 -99 103 l-38 34 -556 1 c-305 1 -563 -1 -572 -4z"/>
<path d="M4404 5472 c-17 -15 -40 -34 -50 -43 -10 -9 -59 -62 -109 -118 -49
-56 -105 -113 -122 -127 -18 -14 -33 -33 -33 -42 0 -16 65 -17 980 -17 549 0
980 4 980 9 0 4 -38 48 -84 96 -45 48 -105 115 -131 149 -26 34 -52 61 -56 61
-5 0 -24 14 -42 30 l-35 30 -633 0 -634 -1 -31 -27z"/>
<path d="M2567 5138 c-13 -13 -36 -41 -50 -63 l-27 -40 0 -682 c0 -600 -2
-683 -15 -683 -8 0 -15 -9 -15 -20 0 -11 7 -20 15 -20 13 0 15 -53 15 -420 0
-367 -2 -420 -15 -420 -8 0 -15 -4 -15 -10 0 -5 6 -10 13 -10 15 0 35 -35 52
-90 9 -29 17 -36 50 -44 22 -5 317 -12 655 -15 528 -5 617 -4 628 8 17 20 17
225 0 238 -8 7 -184 9 -488 7 -292 -2 -489 0 -512 7 -43 11 -88 60 -88 95 0
14 11 45 25 69 l26 43 -24 28 c-39 47 -41 66 -7 115 36 53 37 62 6 82 -34 23
-41 62 -17 101 11 18 32 38 46 44 19 9 164 12 523 12 374 0 501 3 510 12 16
16 15 93 -1 107 -10 7 -201 11 -635 13 -700 3 -650 -3 -659 82 -10 82 -60 76
658 76 l639 0 0 26 c0 14 -9 37 -20 51 -26 34 -26 81 2 110 16 17 19 26 11 34
-8 8 -196 12 -632 13 -701 1 -650 -5 -658 83 -3 33 0 54 10 68 15 20 28 20
648 22 506 2 634 5 640 15 13 20 11 122 -3 136 -9 9 -139 12 -522 12 -281 0
-516 4 -521 8 -16 10 -55 63 -55 73 0 5 14 24 31 44 l31 35 520 0 c489 0 519
1 516 18 -3 16 -38 17 -525 22 -287 3 -523 7 -525 10 -29 37 -48 64 -48 71 0
4 12 21 26 38 l26 31 519 0 c459 0 520 2 526 15 3 9 3 18 0 21 -3 3 -234 5
-515 4 l-510 -1 -30 26 c-45 37 -48 60 -17 100 l26 35 518 0 c403 0 521 3 529
13 5 6 12 41 14 77 3 47 10 75 26 97 26 36 29 78 6 87 -9 3 -308 6 -664 6
l-649 0 -24 -22z m1115 -1205 c10 -9 18 -26 18 -39 0 -25 -35 -64 -57 -64 -20
0 -63 46 -63 66 0 46 65 70 102 37z"/>
<path d="M6225 5147 c-20 -15 -20 -12 29 -102 9 -17 16 -53 16 -85 0 -31 5
-61 12 -68 9 -9 140 -12 529 -12 l518 0 26 -35 c31 -40 28 -63 -17 -100 l-30
-26 -510 1 c-281 1 -512 -1 -515 -4 -3 -3 -3 -12 0 -21 6 -13 67 -15 526 -15
l519 0 26 -31 c14 -17 26 -34 26 -38 0 -7 -19 -34 -48 -71 -2 -3 -238 -7 -525
-10 -487 -5 -522 -6 -525 -22 -3 -17 27 -18 516 -18 l520 0 31 -35 c17 -20 31
-39 31 -44 0 -10 -39 -63 -55 -73 -5 -4 -240 -8 -521 -8 -383 0 -513 -3 -522
-12 -13 -13 -16 -127 -4 -143 4 -6 230 -10 640 -10 622 0 634 0 649 -20 10
-14 13 -35 10 -68 -8 -88 43 -82 -659 -84 -449 -2 -624 -6 -634 -14 -18 -15
-20 -189 -2 -207 9 -9 166 -12 644 -12 711 0 661 6 651 -77 -10 -89 36 -83
-666 -83 -467 0 -620 -3 -629 -12 -16 -16 -16 -90 0 -106 9 -9 135 -12 504
-12 306 0 502 -4 520 -10 16 -6 40 -26 52 -45 27 -39 24 -65 -15 -107 l-26
-27 32 -47 c17 -26 31 -53 31 -60 0 -7 -13 -29 -30 -47 -16 -19 -30 -38 -30
-41 0 -4 11 -24 25 -44 34 -49 33 -91 -3 -125 -16 -15 -42 -31 -60 -36 -17 -5
-244 -9 -506 -8 -374 0 -478 -2 -490 -13 -13 -10 -16 -34 -16 -114 0 -55 4
-107 9 -114 7 -11 120 -13 612 -12 653 1 693 4 716 51 6 13 19 41 29 62 10 20
24 37 31 37 7 0 13 7 13 15 0 8 -7 15 -15 15 -11 0 -15 12 -15 50 0 38 4 50
15 50 12 0 15 16 15 85 0 69 -3 85 -15 85 -12 0 -15 18 -15 105 0 87 3 105 15
105 12 0 15 17 15 90 0 73 -3 90 -15 90 -12 0 -15 16 -15 85 0 69 3 85 15 85
12 0 15 14 15 65 0 51 -3 65 -15 65 -8 0 -15 9 -15 20 0 11 7 20 15 20 11 0
15 12 15 45 0 33 -4 45 -15 45 -12 0 -15 17 -15 90 0 73 3 90 15 90 12 0 15
18 15 105 0 87 -3 105 -15 105 -12 0 -15 18 -15 105 0 87 3 105 15 105 12 0
15 19 15 110 0 91 -3 110 -15 110 -12 0 -15 19 -15 110 0 91 3 110 15 110 8 0
15 9 15 20 0 11 -7 20 -15 20 -10 0 -15 10 -15 28 0 33 -51 125 -82 146 -20
14 -98 16 -673 16 -530 0 -655 -3 -670 -13z m729 -1216 c24 -26 17 -60 -16
-84 -23 -17 -31 -19 -53 -9 -63 29 -50 112 19 112 20 0 40 -8 50 -19z m248 2
c10 -9 18 -26 18 -39 0 -23 -42 -64 -65 -64 -22 0 -65 41 -65 62 0 51 72 77
112 41z"/>
<path d="M4111 4940 c-13 -11 -32 -20 -42 -20 -12 0 -24 -11 -30 -27 -6 -16
-22 -51 -35 -79 l-24 -50 0 -1252 0 -1252 37 -70 c28 -50 47 -73 72 -85 18 -8
35 -25 38 -35 5 -20 19 -20 943 -20 924 0 938 0 943 20 3 10 20 27 39 35 24
12 43 35 68 82 l35 65 1 1261 0 1262 -23 42 c-13 23 -23 50 -23 60 0 23 -19
43 -41 43 -9 0 -28 9 -42 20 -25 20 -40 20 -959 20 -913 -1 -934 -1 -957 -20z
m1871 -98 c20 -12 39 -29 42 -38 11 -28 7 -964 -4 -985 -10 -19 -32 -19 -950
-19 -918 0 -940 0 -950 19 -12 23 -14 969 -2 987 4 6 24 22 46 37 l39 26 871
-2 871 -2 37 -23z m36 -1164 c15 -13 17 -285 2 -308 -8 -13 -125 -15 -950 -15
-825 0 -942 2 -950 15 -5 8 -10 77 -10 152 0 104 3 140 14 151 12 12 159 14
948 14 613 1 937 -3 946 -9z m4 -461 c4 -7 8 -217 8 -467 0 -250 3 -471 6
-490 4 -27 1 -42 -14 -60 l-20 -25 -919 0 c-863 0 -921 1 -946 18 l-27 17 0
499 c0 406 3 501 13 510 10 8 273 12 928 14 503 1 925 1 939 -1 14 -2 28 -9
32 -15z"/>
<path d="M4390 4593 c-24 -30 -24 -82 0 -93 44 -23 201 -28 700 -25 514 3 624
7 663 27 24 12 22 69 -3 96 l-21 22 -659 0 -659 0 -21 -27z"/>
<path d="M4475 4390 c-11 -5 -36 -9 -56 -9 -24 -1 -39 -7 -43 -17 -11 -29 -6
-62 13 -85 l19 -23 648 -1 c405 -1 657 2 669 8 29 15 44 38 45 68 0 33 -14 45
-65 54 -57 11 -1206 16 -1230 5z"/>
<path d="M4492 4170 c-78 -4 -96 -8 -108 -24 -20 -29 -18 -73 5 -86 13 -6 244
-10 681 -10 437 0 668 4 681 10 28 15 25 61 -6 90 l-25 23 -568 1 c-312 1
-609 -1 -660 -4z"/>
<path d="M5256 3535 c-21 -21 -20 -31 4 -55 11 -11 24 -20 29 -20 20 0 42 34
39 59 -2 20 -9 27 -29 29 -15 2 -34 -4 -43 -13z"/>
<path d="M5545 3530 c-9 -28 3 -58 26 -65 37 -12 60 26 43 69 -9 24 -61 21
-69 -4z"/>
<path d="M4400 2967 c-31 -16 -39 -56 -14 -74 14 -10 152 -13 685 -13 594 0
669 2 683 16 21 20 20 48 -1 65 -23 20 -1315 26 -1353 6z"/>
<path d="M4376 2754 c-9 -25 -7 -92 4 -99 12 -8 1368 -8 1380 0 11 7 13 74 4
99 -6 14 -76 16 -694 16 -618 0 -688 -2 -694 -16z"/>
<path d="M4381 2516 c-19 -22 -9 -59 19 -73 20 -10 169 -12 682 -10 609 2 659
3 675 19 13 14 15 23 7 45 l-9 28 -681 3 c-586 2 -683 0 -693 -12z"/>
</g>
</svg>
