<?xml version="1.0" standalone="no"?>
<!DOCTYPE svg PUBLIC "-//W3C//DTD SVG 20010904//EN"
 "http://www.w3.org/TR/2001/REC-SVG-20010904/DTD/svg10.dtd">
<svg version="1.0" xmlns="http://www.w3.org/2000/svg"
 width="1000.000000pt" height="1000.000000pt" viewBox="0 0 1000.000000 1000.000000"
 preserveAspectRatio="xMidYMid meet">

<g transform="translate(0.000000,1000.000000) scale(0.100000,-0.100000)"
fill="#000000" stroke="none">
<path d="M4845 9900 c-4 -6 -53 -10 -115 -10 -60 0 -142 -4 -182 -9 -40 -6
-118 -15 -173 -21 -859 -100 -1751 -479 -2445 -1039 -261 -210 -541 -490 -751
-751 -382 -474 -692 -1060 -867 -1640 -82 -270 -143 -556 -172 -805 -6 -55
-15 -133 -21 -173 -5 -40 -9 -122 -9 -182 0 -62 -4 -111 -10 -115 -13 -8 -13
-302 0 -310 6 -4 10 -53 10 -115 0 -60 4 -142 9 -182 6 -40 15 -118 21 -173
100 -859 479 -1751 1039 -2445 210 -261 490 -541 751 -751 474 -382 1056 -690
1640 -867 266 -81 554 -142 805 -172 55 -6 133 -15 173 -21 40 -5 122 -9 182
-9 62 0 111 -4 115 -10 8 -13 302 -13 310 0 4 6 53 10 115 10 60 0 142 4 182
9 40 6 118 15 173 21 859 100 1751 479 2445 1039 261 210 541 490 751 751 382
474 692 1060 867 1640 82 270 143 556 172 805 6 55 15 133 21 173 5 40 9 122
9 182 0 62 4 111 10 115 6 4 10 67 10 155 0 88 -4 151 -10 155 -6 4 -10 53
-10 115 0 60 -4 142 -9 182 -6 40 -15 118 -21 173 -100 859 -479 1751 -1039
2445 -210 261 -490 541 -751 751 -474 382 -1056 690 -1640 867 -266 81 -554
142 -805 172 -55 6 -133 15 -173 21 -40 5 -122 9 -182 9 -62 0 -111 4 -115 10
-4 6 -67 10 -155 10 -88 0 -151 -4 -155 -10z m590 -610 c446 -50 850 -154
1240 -317 131 -55 365 -171 454 -225 34 -21 65 -38 67 -38 2 0 64 -39 137 -86
1029 -670 1708 -1699 1917 -2904 44 -257 54 -384 54 -720 0 -391 -14 -529 -90
-905 -199 -980 -798 -1920 -1619 -2535 -112 -84 -387 -270 -399 -270 -2 0 -33
-17 -67 -38 -89 -54 -323 -170 -454 -225 -391 -164 -795 -267 -1250 -318 -145
-17 -705 -17 -850 0 -455 51 -859 154 -1250 318 -131 55 -365 171 -454 225
-34 21 -65 38 -67 38 -2 0 -64 39 -137 86 -1029 670 -1708 1699 -1917 2904
-44 257 -54 384 -54 720 0 391 14 529 90 905 199 980 798 1920 1619 2535 112
84 387 270 399 270 2 0 33 17 67 38 89 54 323 170 454 225 455 191 976 310
1445 331 128 6 570 -4 665 -14z"/>
<path d="M4698 7547 c-83 -38 -178 -133 -226 -226 -23 -45 -42 -92 -42 -105 0
-18 -8 -25 -39 -35 -78 -23 -151 -61 -196 -103 -52 -48 -125 -151 -125 -177 0
-8 -8 -35 -17 -58 -16 -38 -22 -43 -75 -58 -32 -9 -60 -20 -64 -26 -3 -5 -24
-17 -45 -26 -45 -18 -167 -148 -186 -198 -6 -17 -14 -55 -18 -85 l-6 -55 -451
3 -450 3 -44 -26 c-78 -46 -74 -2 -74 -765 l0 -680 -65 0 c-35 0 -74 -4 -87
-9 -23 -9 -78 -23 -212 -56 -38 -9 -90 -27 -115 -39 -25 -13 -59 -26 -76 -30
-26 -7 -126 -70 -227 -144 -43 -32 -78 -77 -112 -147 -14 -27 -34 -63 -45 -80
-21 -30 -21 -41 -21 -706 0 -660 0 -677 20 -702 11 -14 29 -47 40 -73 36 -83
181 -217 293 -270 29 -14 63 -34 77 -45 14 -10 51 -23 82 -28 31 -6 85 -21
120 -34 85 -34 175 -41 498 -42 319 0 394 7 511 46 48 16 99 29 114 29 15 0
53 16 84 34 31 19 69 40 84 45 42 16 166 112 217 167 25 27 60 79 79 116 l33
67 4 578 c2 318 -1 638 -6 711 -7 116 -12 138 -33 170 -13 20 -34 53 -45 73
-41 69 -246 223 -313 235 -19 4 -52 16 -74 29 -42 23 -125 50 -185 59 -19 3
-66 15 -105 25 -38 11 -96 21 -127 21 l-58 0 -1 123 c-1 67 -2 317 -3 555 l-2
432 332 0 331 0 6 -223 c4 -123 4 -293 1 -378 -8 -213 7 -300 65 -365 22 -26
41 -51 41 -55 0 -13 144 -117 188 -137 33 -15 98 -17 667 -15 601 1 632 2 675
21 25 11 54 29 64 41 11 11 26 21 34 21 20 0 110 97 134 145 11 22 29 56 39
75 10 19 19 47 19 61 0 21 6 28 28 32 66 12 138 49 201 105 90 80 134 150 158
250 3 13 13 22 24 22 10 0 57 21 105 48 114 62 244 199 244 257 0 11 5 37 11
58 l10 37 334 0 334 0 -2 -540 -2 -539 -70 6 c-81 6 -116 -6 -159 -57 -22 -27
-26 -41 -26 -95 0 -57 3 -68 30 -98 17 -19 30 -39 30 -44 0 -5 13 -29 28 -54
53 -82 111 -183 108 -186 -8 -8 -118 -32 -176 -38 -75 -8 -174 -31 -210 -50
-14 -7 -43 -18 -65 -25 -22 -6 -59 -25 -82 -41 -23 -16 -45 -29 -49 -29 -4 0
-38 -20 -75 -45 -84 -56 -150 -130 -193 -217 l-34 -66 -6 -284 c-4 -155 -3
-347 2 -424 9 -139 10 -143 47 -205 51 -84 111 -151 177 -196 66 -45 235 -133
256 -133 19 0 64 -14 152 -48 49 -19 98 -28 200 -36 298 -22 686 -6 775 34 71
31 127 50 150 50 11 0 34 8 50 18 17 10 52 26 78 36 26 10 60 28 75 41 15 12
42 30 59 39 39 20 171 171 180 206 3 14 16 38 27 53 20 28 21 41 24 429 2 366
1 403 -15 427 -9 14 -30 52 -46 83 -36 72 -157 188 -259 245 -67 39 -106 55
-267 114 -30 11 -90 24 -135 29 -113 13 -155 21 -161 30 -9 14 12 57 70 144
30 46 55 90 55 96 0 7 16 30 35 51 30 33 35 46 35 88 0 56 -27 103 -80 139
-32 22 -43 24 -112 19 l-78 -5 0 675 c0 446 -4 681 -10 694 -6 10 -33 30 -60
44 l-49 25 -444 0 -444 0 -6 241 c-4 133 -4 299 0 370 4 89 2 157 -7 216 -12
78 -18 90 -57 136 -24 28 -43 54 -43 58 0 11 -128 112 -167 132 -29 15 -96 17
-685 16 -648 -1 -653 -1 -700 -22z m1253 -322 c16 -4 35 -21 48 -45 21 -37 21
-44 21 -566 -1 -477 -3 -532 -18 -563 -39 -79 -41 -63 -45 361 -2 243 -7 419
-14 443 -17 63 -42 105 -105 174 -65 71 -94 92 -171 121 -49 19 -79 20 -465
20 -441 0 -442 0 -374 46 31 22 35 22 564 19 293 -2 545 -6 559 -10z m-375
-403 c12 -9 27 -27 33 -39 8 -15 11 -184 11 -563 0 -465 -2 -545 -15 -570 -18
-36 -35 -39 -36 -7 0 12 -2 200 -3 417 l-4 395 -25 55 c-49 105 -136 190 -248
244 l-56 26 -416 0 c-370 0 -416 2 -411 15 17 43 32 44 604 44 502 1 547 -1
566 -17z m-405 -383 c59 -23 58 -14 59 -615 1 -520 0 -549 -18 -573 -10 -14
-32 -29 -48 -33 -32 -10 -1028 -11 -1086 -1 -42 6 -62 25 -74 68 -4 17 -9 257
-11 535 -4 531 -1 571 40 608 17 15 54 18 276 23 329 7 829 0 862 -12z m-2056
-1887 c191 -36 218 -43 267 -68 86 -43 156 -93 184 -129 l26 -35 -27 -36 c-33
-43 -133 -110 -178 -119 -18 -4 -43 -13 -57 -20 -33 -17 -85 -30 -205 -50 -55
-9 -120 -21 -145 -25 -117 -22 -222 -20 -385 10 -27 5 -90 15 -140 23 -49 7
-111 23 -136 34 -26 12 -62 24 -80 28 -46 10 -130 67 -163 109 -46 61 -27 99
79 163 113 67 160 82 357 112 65 9 121 20 125 25 15 15 364 -1 478 -22z m4200
-473 c33 -5 98 -14 145 -19 99 -10 183 -29 260 -59 30 -11 62 -21 70 -22 25
-1 133 -82 157 -118 21 -30 21 -35 8 -61 -27 -52 -175 -142 -275 -169 -319
-83 -570 -89 -865 -22 -151 35 -267 86 -337 149 -49 45 -55 66 -28 106 24 33
138 116 162 116 7 0 38 10 68 21 77 30 162 49 255 59 44 5 96 13 115 18 48 14
192 14 265 1z m-3725 -584 l0 -385 -42 -47 c-46 -50 -200 -133 -247 -133 -14
0 -43 -6 -66 -14 -22 -7 -58 -19 -79 -26 -32 -10 -257 -30 -341 -31 -66 0
-310 21 -337 30 -57 17 -142 39 -178 46 -42 9 -162 74 -207 113 -34 29 -67 94
-55 107 4 3 9 166 12 360 l5 354 50 -21 c28 -11 70 -29 95 -41 25 -11 81 -26
125 -33 125 -20 197 -34 240 -47 52 -16 447 -15 501 0 21 6 95 21 164 33 91
16 156 35 240 70 63 27 116 48 118 49 1 1 2 -172 2 -384z m2952 -164 c53 -22
119 -44 145 -49 26 -6 83 -19 125 -30 148 -40 637 -38 783 2 33 10 85 23 115
31 83 20 132 36 160 50 33 16 99 45 105 45 3 0 5 -42 5 -93 0 -88 -2 -97 -29
-134 -16 -22 -42 -49 -58 -60 -48 -32 -145 -76 -213 -95 -227 -64 -207 -62
-480 -62 -237 0 -261 1 -340 23 -47 13 -112 30 -145 38 -84 21 -203 86 -252
139 l-43 46 0 100 c0 76 3 99 13 95 6 -3 56 -24 109 -46z"/>
</g>
</svg>
