<?xml version="1.0" standalone="no"?>
<!DOCTYPE svg PUBLIC "-//W3C//DTD SVG 20010904//EN"
 "http://www.w3.org/TR/2001/REC-SVG-20010904/DTD/svg10.dtd">
<svg version="1.0" xmlns="http://www.w3.org/2000/svg"
 width="1000.000000pt" height="1000.000000pt" viewBox="0 0 1000.000000 1000.000000"
 preserveAspectRatio="xMidYMid meet">

<g transform="translate(0.000000,1000.000000) scale(0.100000,-0.100000)"
fill="#000000" stroke="none">
<path d="M4845 9900 c-4 -6 -53 -10 -115 -10 -60 0 -142 -4 -182 -9 -40 -6
-118 -15 -173 -21 -859 -100 -1751 -479 -2445 -1039 -261 -210 -541 -490 -751
-751 -382 -474 -692 -1060 -867 -1640 -82 -270 -143 -556 -172 -805 -6 -55
-15 -133 -21 -173 -5 -40 -9 -122 -9 -182 0 -62 -4 -111 -10 -115 -13 -8 -13
-302 0 -310 6 -4 10 -53 10 -115 0 -60 4 -142 9 -182 6 -40 15 -118 21 -173
100 -859 479 -1751 1039 -2445 210 -261 490 -541 751 -751 474 -382 1056 -690
1640 -867 266 -81 554 -142 805 -172 55 -6 133 -15 173 -21 40 -5 122 -9 182
-9 62 0 111 -4 115 -10 8 -13 302 -13 310 0 4 6 53 10 115 10 60 0 142 4 182
9 40 6 118 15 173 21 859 100 1751 479 2445 1039 261 210 541 490 751 751 382
474 692 1060 867 1640 82 270 143 556 172 805 6 55 15 133 21 173 5 40 9 122
9 182 0 62 4 111 10 115 6 4 10 67 10 155 0 88 -4 151 -10 155 -6 4 -10 53
-10 115 0 60 -4 142 -9 182 -6 40 -15 118 -21 173 -100 859 -479 1751 -1039
2445 -210 261 -490 541 -751 751 -474 382 -1056 690 -1640 867 -266 81 -554
142 -805 172 -55 6 -133 15 -173 21 -40 5 -122 9 -182 9 -62 0 -111 4 -115 10
-4 6 -67 10 -155 10 -88 0 -151 -4 -155 -10z m590 -610 c446 -50 850 -154
1240 -317 131 -55 365 -171 454 -225 34 -21 65 -38 67 -38 2 0 64 -39 137 -86
1029 -670 1708 -1699 1917 -2904 44 -257 54 -384 54 -720 0 -391 -14 -529 -90
-905 -199 -980 -798 -1920 -1619 -2535 -112 -84 -387 -270 -399 -270 -2 0 -33
-17 -67 -38 -89 -54 -323 -170 -454 -225 -391 -164 -795 -267 -1250 -318 -145
-17 -705 -17 -850 0 -455 51 -859 154 -1250 318 -131 55 -365 171 -454 225
-34 21 -65 38 -67 38 -2 0 -64 39 -137 86 -1029 670 -1708 1699 -1917 2904
-44 257 -54 384 -54 720 0 391 14 529 90 905 199 980 798 1920 1619 2535 112
84 387 270 399 270 2 0 33 17 67 38 89 54 323 170 454 225 455 191 976 310
1445 331 128 6 570 -4 665 -14z"/>
<path d="M5000 8369 c-8 -5 -80 -32 -160 -60 -80 -28 -174 -63 -210 -76 -36
-13 -76 -28 -90 -32 -29 -10 -487 -177 -790 -288 -113 -41 -227 -83 -255 -93
-27 -10 -95 -34 -150 -53 -55 -19 -262 -94 -460 -167 -198 -72 -427 -156 -510
-185 -199 -71 -245 -91 -278 -123 -57 -53 -65 -84 -86 -323 -62 -683 -66
-1130 -16 -1694 75 -847 269 -1539 598 -2135 510 -923 1350 -1543 2321 -1711
158 -28 213 -23 481 37 277 63 562 175 833 326 31 17 66 36 77 42 30 17 171
113 253 174 282 208 533 465 751 771 303 424 518 911 666 1506 44 178 55 235
96 470 95 560 120 1271 68 1970 -25 351 -41 488 -60 513 -43 57 -78 83 -148
111 -71 28 -655 241 -966 353 -77 27 -162 58 -190 68 -27 11 -282 103 -565
205 -283 102 -531 192 -550 199 -19 8 -66 25 -105 39 -38 14 -131 48 -205 75
-74 27 -153 55 -175 62 -22 7 -44 16 -49 21 -13 12 -107 10 -126 -2z m208
-485 c70 -25 150 -54 177 -65 28 -10 151 -55 275 -99 124 -44 234 -85 245 -90
11 -5 142 -52 290 -105 149 -53 297 -107 330 -120 33 -13 157 -58 275 -100
196 -69 254 -91 360 -131 19 -7 145 -53 280 -101 l245 -88 7 -45 c11 -77 27
-333 39 -637 34 -847 -72 -1701 -288 -2318 -82 -233 -223 -556 -284 -645 -9
-14 -42 -69 -73 -122 -343 -587 -914 -1053 -1551 -1266 -208 -69 -374 -106
-480 -105 -106 0 -387 67 -520 124 -11 4 -69 28 -130 52 -219 88 -450 225
-655 386 -124 97 -376 350 -474 474 -253 321 -439 669 -589 1102 -218 627
-322 1455 -289 2300 13 322 29 592 41 659 l6 40 225 83 c124 45 263 96 310
112 47 17 117 42 155 56 39 14 164 60 280 101 115 41 236 86 270 98 33 13 182
67 330 120 149 54 280 101 293 107 13 5 105 39 205 75 100 36 261 94 357 129
96 35 183 64 193 64 9 1 74 -20 145 -45z"/>
<path d="M4710 6733 c-56 -10 -158 -48 -214 -81 -87 -50 -204 -172 -245 -257
-67 -135 -71 -167 -71 -581 l0 -371 -77 -6 c-137 -10 -222 -54 -282 -147 -62
-96 -62 -98 -59 -865 l3 -690 28 -60 c39 -84 108 -146 192 -173 65 -22 68 -22
1077 -22 1005 0 1013 0 1080 21 77 25 136 70 173 133 55 95 55 85 55 823 0
644 -1 685 -19 743 -24 77 -59 128 -116 169 -59 43 -115 61 -207 68 l-78 6 0
370 c0 308 -3 382 -16 436 -53 213 -209 382 -424 461 -64 24 -73 24 -420 26
-195 1 -366 0 -380 -3z m722 -458 c23 -17 54 -51 68 -75 l24 -45 1 -355 0
-355 -463 -3 -463 -2 3 357 c3 349 4 359 25 400 23 43 69 84 113 102 15 6 145
9 337 8 l311 -2 44 -30z m-255 -1290 c48 -20 97 -67 131 -125 24 -39 27 -56
27 -130 0 -74 -3 -91 -27 -131 -15 -25 -44 -61 -64 -79 l-37 -32 1 -263 c1
-332 9 -315 -143 -315 -152 0 -145 -16 -145 317 l0 264 -35 31 c-20 17 -48 52
-63 77 -24 40 -27 57 -27 131 0 75 3 91 27 132 34 57 97 112 152 132 49 19
147 14 203 -9z"/>
</g>
</svg>
