<?xml version="1.0" standalone="no"?>
<!DOCTYPE svg PUBLIC "-//W3C//DTD SVG 20010904//EN"
 "http://www.w3.org/TR/2001/REC-SVG-20010904/DTD/svg10.dtd">
<svg version="1.0" xmlns="http://www.w3.org/2000/svg"
 width="1000.000000pt" height="1000.000000pt" viewBox="0 0 1000.000000 1000.000000"
 preserveAspectRatio="xMidYMid meet">

<g transform="translate(0.000000,1000.000000) scale(0.100000,-0.100000)"
fill="#000000" stroke="none">
<path d="M4845 9900 c-4 -6 -53 -10 -115 -10 -60 0 -142 -4 -182 -9 -40 -6
-118 -15 -173 -21 -859 -100 -1751 -479 -2445 -1039 -261 -210 -541 -490 -751
-751 -382 -474 -692 -1060 -867 -1640 -82 -270 -143 -556 -172 -805 -6 -55
-15 -133 -21 -173 -5 -40 -9 -122 -9 -182 0 -62 -4 -111 -10 -115 -13 -8 -13
-302 0 -310 6 -4 10 -53 10 -115 0 -60 4 -142 9 -182 6 -40 15 -118 21 -173
100 -859 479 -1751 1039 -2445 210 -261 490 -541 751 -751 474 -382 1056 -690
1640 -867 266 -81 554 -142 805 -172 55 -6 133 -15 173 -21 40 -5 122 -9 182
-9 62 0 111 -4 115 -10 8 -13 302 -13 310 0 4 6 53 10 115 10 60 0 142 4 182
9 40 6 118 15 173 21 859 100 1751 479 2445 1039 261 210 541 490 751 751 382
474 692 1060 867 1640 82 270 143 556 172 805 6 55 15 133 21 173 5 40 9 122
9 182 0 62 4 111 10 115 6 4 10 67 10 155 0 88 -4 151 -10 155 -6 4 -10 53
-10 115 0 60 -4 142 -9 182 -6 40 -15 118 -21 173 -100 859 -479 1751 -1039
2445 -210 261 -490 541 -751 751 -474 382 -1056 690 -1640 867 -266 81 -554
142 -805 172 -55 6 -133 15 -173 21 -40 5 -122 9 -182 9 -62 0 -111 4 -115 10
-4 6 -67 10 -155 10 -88 0 -151 -4 -155 -10z m590 -610 c446 -50 850 -154
1240 -317 131 -55 365 -171 454 -225 34 -21 65 -38 67 -38 2 0 64 -39 137 -86
1029 -670 1708 -1699 1917 -2904 44 -257 54 -384 54 -720 0 -391 -14 -529 -90
-905 -199 -980 -798 -1920 -1619 -2535 -112 -84 -387 -270 -399 -270 -2 0 -33
-17 -67 -38 -89 -54 -323 -170 -454 -225 -391 -164 -795 -267 -1250 -318 -145
-17 -705 -17 -850 0 -455 51 -859 154 -1250 318 -131 55 -365 171 -454 225
-34 21 -65 38 -67 38 -2 0 -64 39 -137 86 -1029 670 -1708 1699 -1917 2904
-44 257 -54 384 -54 720 0 391 14 529 90 905 199 980 798 1920 1619 2535 112
84 387 270 399 270 2 0 33 17 67 38 89 54 323 170 454 225 455 191 976 310
1445 331 128 6 570 -4 665 -14z"/>
<path d="M2412 7579 c-100 -20 -224 -115 -272 -210 -39 -75 -41 -130 -38
-1197 l3 -1034 165 -1 165 -2 5 913 c5 890 6 914 24 928 17 12 353 14 2343 14
l2324 0 24 -25 25 -24 0 -376 0 -375 150 0 150 0 0 513 c0 527 -4 597 -40 667
-36 70 -108 138 -188 177 l-76 38 -2360 1 c-1299 1 -2380 -2 -2404 -7z"/>
<path d="M3235 6830 c-16 -11 -52 -38 -80 -60 -27 -22 -68 -52 -90 -67 -35
-25 -97 -74 -215 -171 -19 -16 -51 -37 -70 -47 -35 -18 -161 -121 -192 -157
-50 -57 1 -158 79 -158 45 0 81 22 207 127 22 18 44 33 49 33 5 0 24 12 43 28
18 15 55 44 81 64 26 21 84 66 128 100 44 35 97 75 117 90 86 65 108 93 108
137 0 85 -91 130 -165 81z"/>
<path d="M3962 6828 c-78 -57 -192 -147 -248 -195 -34 -29 -63 -53 -66 -53 -3
0 -22 -16 -42 -35 -21 -19 -42 -35 -48 -35 -6 0 -25 -12 -43 -27 -18 -16 -56
-46 -85 -68 -52 -40 -192 -153 -327 -265 -39 -33 -76 -60 -81 -60 -5 0 -21 -9
-36 -21 -14 -11 -30 -17 -36 -14 -5 3 -10 0 -10 -8 0 -8 -41 -48 -91 -88 -278
-225 -279 -226 -279 -280 0 -86 96 -129 168 -76 41 29 94 71 168 132 34 27 82
66 108 85 26 19 62 50 82 68 19 17 39 32 46 32 6 0 38 24 72 53 34 29 88 73
121 97 33 25 90 70 127 100 37 30 97 80 134 109 36 30 77 61 90 67 13 7 53 37
88 66 35 29 87 71 115 93 145 113 232 191 237 212 10 39 -5 91 -33 113 -35 27
-91 26 -131 -2z"/>
<path d="M6215 6105 c-48 -17 -101 -74 -115 -124 -6 -23 -10 -600 -10 -1622 0
-1397 2 -1592 15 -1630 19 -53 38 -75 90 -103 l40 -21 1090 0 1090 0 45 30
c25 17 56 50 70 75 l25 45 1 1595 c2 1544 1 1597 -17 1646 -23 61 -50 88 -108
109 -38 13 -176 15 -1110 15 -889 -1 -1073 -3 -1106 -15z m2090 -450 l25 -24
0 -1166 0 -1166 -25 -24 -24 -25 -965 0 c-530 0 -972 3 -981 6 -46 18 -45 -11
-45 1219 l0 1156 25 24 24 25 971 0 971 0 24 -25z m-825 -2705 l0 -150 -155 0
-155 0 0 150 0 150 155 0 155 0 0 -150z"/>
<path d="M6884 5541 c-47 -34 -503 -521 -522 -557 -18 -34 -2 -74 38 -97 27
-16 30 -16 59 0 34 20 518 532 539 570 18 33 2 73 -37 96 -36 21 -31 22 -77
-12z"/>
<path d="M7431 5517 c-22 -11 -132 -119 -139 -137 -2 -4 -26 -33 -55 -63 -98
-105 -157 -172 -175 -198 -9 -15 -104 -122 -210 -237 -106 -116 -219 -242
-251 -281 -32 -39 -96 -111 -142 -161 -104 -114 -115 -132 -98 -171 6 -17 25
-37 40 -45 25 -12 33 -13 63 0 18 8 42 26 52 41 11 15 42 51 69 80 59 63 116
128 147 171 13 17 113 128 223 248 110 120 204 225 209 234 5 10 85 99 178
199 92 101 174 199 183 220 19 45 7 84 -31 102 -30 13 -32 13 -63 -2z"/>
<path d="M7297 3003 c-11 -11 -8 -58 5 -71 7 -7 21 -12 33 -12 12 0 26 5 33
12 7 7 12 21 12 33 0 12 -5 26 -12 33 -13 13 -60 16 -71 5z"/>
<path d="M1547 5065 c-50 -17 -85 -50 -108 -100 -18 -38 -19 -91 -19 -1117 0
-1214 -6 -1126 78 -1195 l46 -38 551 -1 c616 -1 620 -1 686 65 20 20 42 54 48
76 15 56 16 2118 0 2179 -15 61 -59 111 -116 130 -40 14 -118 16 -587 16 -432
-1 -549 -4 -579 -15z m1087 -410 c13 -17 15 -110 16 -707 0 -675 0 -688 -20
-708 -19 -19 -33 -20 -495 -20 l-476 0 -24 25 -25 24 0 681 0 681 25 25 25 25
479 -3 c467 -3 481 -4 495 -23z m-374 -1695 l0 -160 -145 0 -145 0 0 160 0
160 145 0 145 0 0 -160z"/>
<path d="M1892 4587 c-12 -13 -22 -27 -22 -31 0 -4 -4 -12 -10 -19 -180 -225
-203 -266 -166 -297 31 -25 60 -6 131 87 173 226 182 242 153 271 -19 19 -63
14 -86 -11z"/>
<path d="M2173 4548 c-29 -33 -193 -257 -193 -264 0 -4 -29 -45 -64 -93 -207
-277 -226 -305 -226 -331 0 -33 21 -53 52 -48 22 3 128 134 236 293 58 85 103
147 205 284 77 104 92 142 65 169 -19 19 -53 14 -75 -10z"/>
<path d="M2082 2998 c-28 -28 -7 -78 33 -78 29 0 45 19 45 51 0 37 -51 54 -78
27z"/>
<path d="M2980 3900 l0 -440 1490 0 1490 0 0 440 0 440 -1490 0 -1490 0 0
-440z"/>
<path d="M3857 3166 c-50 -18 -85 -51 -108 -101 -27 -58 -27 -311 0 -370 22
-49 69 -91 119 -105 25 -8 312 -10 922 -8 875 3 885 3 925 24 25 13 51 39 70
69 29 47 30 53 33 188 5 181 -14 232 -103 292 -29 20 -49 20 -925 22 -740 2
-902 0 -933 -11z"/>
</g>
</svg>
