<?xml version="1.0" standalone="no"?>
<!DOCTYPE svg PUBLIC "-//W3C//DTD SVG 20010904//EN"
 "http://www.w3.org/TR/2001/REC-SVG-20010904/DTD/svg10.dtd">
<svg version="1.0" xmlns="http://www.w3.org/2000/svg"
 width="1000.000000pt" height="1000.000000pt" viewBox="0 0 1000.000000 1000.000000"
 preserveAspectRatio="xMidYMid meet">

<g transform="translate(0.000000,1000.000000) scale(0.100000,-0.100000)"
fill="#000000" stroke="none">
<path d="M4845 9900 c-4 -6 -53 -10 -115 -10 -60 0 -142 -4 -182 -9 -40 -6
-118 -15 -173 -21 -859 -100 -1751 -479 -2445 -1039 -261 -210 -541 -490 -751
-751 -382 -474 -692 -1060 -867 -1640 -82 -270 -143 -556 -172 -805 -6 -55
-15 -133 -21 -173 -5 -40 -9 -122 -9 -182 0 -62 -4 -111 -10 -115 -13 -8 -13
-302 0 -310 6 -4 10 -53 10 -115 0 -60 4 -142 9 -182 6 -40 15 -118 21 -173
100 -859 479 -1751 1039 -2445 210 -261 490 -541 751 -751 474 -382 1056 -690
1640 -867 266 -81 554 -142 805 -172 55 -6 133 -15 173 -21 40 -5 122 -9 182
-9 62 0 111 -4 115 -10 8 -13 302 -13 310 0 4 6 53 10 115 10 60 0 142 4 182
9 40 6 118 15 173 21 859 100 1751 479 2445 1039 261 210 541 490 751 751 382
474 692 1060 867 1640 82 270 143 556 172 805 6 55 15 133 21 173 5 40 9 122
9 182 0 62 4 111 10 115 6 4 10 67 10 155 0 88 -4 151 -10 155 -6 4 -10 53
-10 115 0 60 -4 142 -9 182 -6 40 -15 118 -21 173 -100 859 -479 1751 -1039
2445 -210 261 -490 541 -751 751 -474 382 -1056 690 -1640 867 -266 81 -554
142 -805 172 -55 6 -133 15 -173 21 -40 5 -122 9 -182 9 -62 0 -111 4 -115 10
-4 6 -67 10 -155 10 -88 0 -151 -4 -155 -10z m590 -610 c446 -50 850 -154
1240 -317 131 -55 365 -171 454 -225 34 -21 65 -38 67 -38 2 0 64 -39 137 -86
1029 -670 1708 -1699 1917 -2904 44 -257 54 -384 54 -720 0 -391 -14 -529 -90
-905 -199 -980 -798 -1920 -1619 -2535 -112 -84 -387 -270 -399 -270 -2 0 -33
-17 -67 -38 -89 -54 -323 -170 -454 -225 -391 -164 -795 -267 -1250 -318 -145
-17 -705 -17 -850 0 -455 51 -859 154 -1250 318 -131 55 -365 171 -454 225
-34 21 -65 38 -67 38 -2 0 -64 39 -137 86 -1029 670 -1708 1699 -1917 2904
-44 257 -54 384 -54 720 0 391 14 529 90 905 199 980 798 1920 1619 2535 112
84 387 270 399 270 2 0 33 17 67 38 89 54 323 170 454 225 455 191 976 310
1445 331 128 6 570 -4 665 -14z"/>
<path d="M3840 8315 l0 -155 160 0 160 0 0 155 0 155 -160 0 -160 0 0 -155z"/>
<path d="M5177 8023 c-4 -3 -7 -73 -7 -154 0 -176 -18 -161 180 -157 l135 3 3
158 3 157 -154 0 c-85 0 -157 -3 -160 -7z"/>
<path d="M6064 8017 c-2 -7 -3 -78 -2 -157 l3 -145 155 0 155 0 0 155 0 155
-153 3 c-119 2 -154 0 -158 -11z"/>
<path d="M2967 7583 c-4 -3 -7 -75 -7 -160 l0 -153 154 0 154 0 6 31 c10 49 7
235 -4 263 l-10 26 -143 0 c-79 0 -147 -3 -150 -7z"/>
<path d="M3844 7577 c-2 -7 -3 -78 -2 -157 l3 -145 158 -3 158 -3 -3 158 -3
158 -153 3 c-119 2 -154 0 -158 -11z"/>
<path d="M4737 7584 c-4 -4 -7 -76 -7 -161 l0 -154 158 3 157 3 0 155 0 155
-151 3 c-82 1 -153 -1 -157 -4z"/>
<path d="M3407 7143 c-4 -3 -7 -75 -7 -160 l0 -153 160 0 160 0 0 154 c0 131
-2 155 -16 160 -21 8 -289 8 -297 -1z"/>
<path d="M3846 7143 c-3 -4 -6 -75 -6 -160 l0 -153 160 0 161 0 -3 158 -3 157
-151 2 c-83 1 -154 -1 -158 -4z"/>
<path d="M5633 7144 c-10 -4 -13 -46 -13 -160 l0 -154 155 0 156 0 -3 158 -3
157 -140 2 c-77 1 -146 -1 -152 -3z"/>
<path d="M6516 7143 c-3 -4 -6 -75 -6 -160 l0 -153 155 0 156 0 -3 158 -3 157
-146 2 c-81 1 -149 -1 -153 -4z"/>
<path d="M4730 6546 c0 -131 2 -155 16 -160 23 -9 277 -7 292 2 9 7 12 45 10
158 l-3 149 -157 3 -158 3 0 -155z"/>
<path d="M5622 6543 l3 -158 150 0 150 0 3 158 3 157 -156 0 -156 0 3 -157z"/>
<path d="M6510 6546 c0 -114 3 -155 13 -158 6 -3 75 -5 152 -4 l140 1 3 158 3
157 -156 0 -155 0 0 -154z"/>
<path d="M6948 6693 c-2 -5 -1 -75 2 -158 l5 -150 145 -2 c80 -2 150 0 155 5
6 4 9 66 7 160 l-3 152 -154 0 c-85 0 -155 -3 -157 -7z"/>
<path d="M2965 6252 c-3 -3 -5 -74 -5 -159 l0 -154 158 3 157 3 2 150 c1 105
-2 152 -10 158 -13 8 -293 7 -302 -1z"/>
<path d="M3418 6253 c-16 -4 -18 -20 -18 -159 l0 -154 160 0 161 0 -3 158 -3
157 -140 1 c-77 1 -148 -1 -157 -3z"/>
<path d="M4297 6254 c-4 -4 -7 -76 -7 -161 l0 -153 155 0 155 0 0 159 0 158
-148 2 c-81 1 -151 -1 -155 -5z"/>
<path d="M4734 6247 c-2 -7 -3 -78 -2 -157 l3 -145 158 -3 158 -3 -3 158 -3
158 -153 2 c-115 2 -154 -1 -158 -10z"/>
<path d="M5182 6251 c-9 -6 -12 -45 -10 -157 l3 -149 158 -3 158 -3 -3 158 -3
158 -145 2 c-80 1 -151 -1 -158 -6z"/>
<path d="M6064 6251 c-2 -2 -4 -73 -4 -158 l0 -153 160 0 160 0 0 155 c0 152
0 155 -22 160 -27 5 -288 2 -294 -4z"/>
<path d="M2962 5653 l3 -158 143 -3 c99 -2 148 1 158 9 11 9 14 42 14 144 0
74 -3 140 -6 149 -5 14 -29 16 -160 16 l-155 0 3 -157z"/>
<path d="M3842 5653 l3 -158 155 0 155 0 3 158 3 157 -161 0 -161 0 3 -157z"/>
<path d="M6060 5656 l0 -153 153 -6 c83 -3 155 -3 160 0 4 2 7 74 7 159 l0
154 -160 0 -160 0 0 -154z"/>
<path d="M3402 5213 l3 -158 147 -1 c81 0 152 2 158 6 7 4 10 58 8 156 l-3
149 -158 3 -158 3 3 -158z"/>
<path d="M4734 5357 c-3 -8 -4 -79 -2 -158 l3 -144 155 0 155 0 0 155 0 155
-153 3 c-123 2 -153 0 -158 -11z"/>
<path d="M5174 5357 c-2 -7 -3 -78 -2 -157 l3 -145 155 0 155 0 0 155 0 155
-153 3 c-119 2 -154 0 -158 -11z"/>
<path d="M6064 5356 c-2 -6 -3 -76 -1 -156 l2 -145 155 0 155 0 0 155 0 155
-154 1 c-100 0 -154 -3 -157 -10z"/>
<path d="M6510 5211 l0 -159 153 2 152 1 3 158 3 157 -156 0 -155 0 0 -159z"/>
<path d="M2965 4921 c-3 -2 -5 -73 -5 -158 l0 -153 155 0 c154 0 155 0 156 23
6 221 3 287 -11 292 -19 6 -289 3 -295 -4z"/>
<path d="M3405 4922 c-3 -3 -5 -74 -5 -159 l0 -153 160 0 161 0 -3 158 -3 157
-152 1 c-84 1 -155 -1 -158 -4z"/>
<path d="M3851 4910 c-3 -8 -6 -78 -6 -155 l0 -140 158 -3 158 -3 -3 158 -3
158 -149 0 c-123 0 -149 -2 -155 -15z"/>
<path d="M4748 4923 c-16 -4 -18 -20 -18 -159 l0 -155 158 3 157 3 0 155 0
155 -140 1 c-77 1 -148 -1 -157 -3z"/>
<path d="M7397 4924 c-4 -4 -7 -76 -7 -161 l0 -154 158 3 157 3 0 155 0 155
-151 3 c-82 1 -153 -1 -157 -4z"/>
<path d="M2517 4473 c-4 -3 -7 -73 -7 -155 l0 -148 160 0 160 0 0 155 0 155
-153 0 c-85 0 -157 -3 -160 -7z"/>
<path d="M2960 4325 l0 -156 158 3 157 3 3 120 c2 66 0 135 -3 153 l-6 32
-154 0 -155 0 0 -155z"/>
<path d="M4730 4325 l0 -155 160 0 160 0 0 155 0 155 -160 0 -160 0 0 -155z"/>
<path d="M6060 4325 l0 -155 160 0 160 0 0 155 0 155 -160 0 -160 0 0 -155z"/>
<path d="M6950 4475 c-1 -3 -1 -71 -1 -152 l-1 -148 156 -3 155 -3 3 152 c2
83 1 153 -1 155 -6 6 -311 5 -311 -1z"/>
<path d="M2720 3838 c0 -98 14 -240 29 -294 12 -45 34 -59 146 -94 39 -11 79
-25 90 -29 11 -5 88 -30 172 -57 l151 -48 42 -105 c23 -58 52 -126 64 -150
l23 -44 -45 -96 c-24 -53 -76 -161 -115 -241 -90 -186 -90 -195 -13 -289 102
-124 338 -347 428 -404 15 -9 35 -17 45 -17 10 -1 131 56 269 126 l251 127 64
-30 c67 -31 113 -50 191 -78 40 -14 49 -22 62 -58 8 -23 36 -100 61 -172 97
-274 108 -301 125 -319 27 -28 163 -39 415 -32 240 6 312 16 336 45 9 11 49
120 88 243 89 274 95 291 112 300 12 6 181 78 261 111 29 12 34 10 323 -128
212 -102 218 -103 260 -81 74 40 370 324 443 425 18 24 32 54 32 66 0 19 -35
90 -122 245 -14 25 -51 92 -83 149 l-57 105 41 85 c22 47 54 130 71 183 l32
97 82 26 c304 97 424 138 444 153 28 22 52 147 52 275 l0 87 -764 0 -763 0 -7
-80 c-14 -158 -78 -324 -174 -451 -95 -125 -216 -214 -387 -284 -49 -21 -234
-55 -296 -55 -85 0 -232 31 -319 68 -115 48 -181 91 -269 176 -152 147 -235
315 -261 526 -5 46 -10 88 -10 92 0 5 -342 8 -760 8 l-760 0 0 -82z"/>
</g>
</svg>
